# xmcd
#
# Track frame offsets:
#	150
#	20892
#	37680
#	55235
#	68977
#	84227
#	99330
#	116880
#	126497
#	143580
#	166427
#	182570
#	197280
#	215297
#	234882
#	257617
#	277270
#	289482
#	307952
#	324092
#
# Disc length: 4550 seconds
#
# Revision: 1
# Processed by: cddbd v1.5.1PL0 Copyright (c) Steve Scherf et al.
# Submitted via: CDex 1.50Beta5
#
DISCID=1911c414
DTITLE=The Black Cats - ベストセレクション
DYEAR=1900
DGENRE=Rock
TTITLE0=Mimee
TTITLE1=孤独なジルバ
TTITLE2=ファニーダンステリア
TTITLE3=チャラチャラ
TTITLE4=ジルバ午前麗時
TTITLE5=抱きしめてクレージーナイト
TTITLE6=ギャンブルタウン
TTITLE7=口笛とジャックナイフ
TTITLE8=俺の中にあるあの日のこと
TTITLE9=Good Bye Boy ・俺のラストシーン
TTITLE10=チェッ!チェッ!チェッ!
TTITLE11=ボニ-&クライドの未来 ボニ-&クライドの未来
TTITLE12=レイラ
TTITLE13=優しさの情景(シーン)
TTITLE14=勝利者
TTITLE15=チャイナブルーの夜
TTITLE16=昔の俺じゃない
TTITLE17=野イチゴの想い出
TTITLE18=春まで待ちます-ランデブーPart?-
TTITLE19=1979年 19才
EXTD=
EXTT0=
EXTT1=
EXTT2=
EXTT3=
EXTT4=
EXTT5=
EXTT6=
EXTT7=
EXTT8=
EXTT9=
EXTT10=
EXTT11=
EXTT12=
EXTT13=
EXTT14=
EXTT15=
EXTT16=
EXTT17=
EXTT18=
EXTT19=
PLAYORDER=
